<mxfile host="65bd71144e">
    <diagram id="M2FbQSBkSo_E0EzBb7tr" name="PÃ¡gina-1">
        <mxGraphModel dx="734" dy="1735" grid="1" gridSize="10" guides="1" tooltips="1" connect="1" arrows="1" fold="1" page="1" pageScale="1" pageWidth="827" pageHeight="1169" math="0" shadow="0">
            <root>
                <mxCell id="0"/>
                <mxCell id="1" parent="0"/>
                <mxCell id="28" value="" style="strokeWidth=2;html=1;shape=mxgraph.flowchart.annotation_1;align=left;pointerEvents=1;labelBackgroundColor=#333333;fontFamily=Helvetica;fontSize=12;fontColor=#FFFFFF;" vertex="1" parent="1">
                    <mxGeometry x="600" y="330" width="50" height="100" as="geometry"/>
                </mxCell>
                <mxCell id="4" value="" style="edgeStyle=none;html=1;" edge="1" parent="1" source="2" target="3">
                    <mxGeometry relative="1" as="geometry"/>
                </mxCell>
                <mxCell id="2" value="x=random.randint(0,100)&lt;br&gt;intento=0" style="whiteSpace=wrap;html=1;" vertex="1" parent="1">
                    <mxGeometry x="271" y="30" width="150" height="60" as="geometry"/>
                </mxCell>
                <mxCell id="3" value="while 4&lt;span style=&quot;color: rgb(32 , 33 , 34) ; font-family: sans-serif ; font-size: 14px ; background-color: rgb(255 , 255 , 255)&quot;&gt;&amp;gt;&lt;/span&gt;&lt;br&gt;intento:&lt;br&gt;numero = (input(&quot;inserte un numero entre 0 y 99: &quot;))&lt;br&gt;intento+=1" style="rhombus;whiteSpace=wrap;html=1;" vertex="1" parent="1">
                    <mxGeometry x="210" y="110" width="190" height="210" as="geometry"/>
                </mxCell>
                <mxCell id="8" value="" style="edgeStyle=none;html=1;" edge="1" parent="1" source="6" target="2">
                    <mxGeometry relative="1" as="geometry"/>
                </mxCell>
                <mxCell id="6" value="import random" style="whiteSpace=wrap;html=1;" vertex="1" parent="1">
                    <mxGeometry x="285" y="-60" width="120" height="60" as="geometry"/>
                </mxCell>
                <mxCell id="18" value="" style="edgeStyle=none;html=1;fontFamily=Helvetica;fontSize=12;fontColor=#FFFFFF;" edge="1" parent="1" source="9" target="12">
                    <mxGeometry relative="1" as="geometry"/>
                </mxCell>
                <mxCell id="9" value="&lt;font style=&quot;font-size: 12px&quot;&gt;&lt;span style=&quot;font-size: 12px&quot;&gt;&lt;font style=&quot;font-size: 12px ; background-color: rgb(42 , 42 , 42)&quot;&gt;if&lt;/font&gt;&lt;font color=&quot;#ffffff&quot; style=&quot;background-color: rgb(51 , 51 , 51) ; font-size: 12px&quot;&gt; numero&amp;gt;99 or 1&lt;/font&gt;&lt;/span&gt;&lt;/font&gt;&lt;font style=&quot;background-color: rgb(51 , 51 , 51) ; font-size: 12px&quot; color=&quot;#ffffff&quot;&gt;&amp;gt; numero:&lt;/font&gt;" style="whiteSpace=wrap;html=1;fontSize=12;" vertex="1" parent="1">
                    <mxGeometry x="452.5" y="140" width="125" height="60" as="geometry"/>
                </mxCell>
                <mxCell id="19" style="edgeStyle=none;html=1;entryX=0.5;entryY=0;entryDx=0;entryDy=0;fontFamily=Helvetica;fontSize=12;fontColor=#FFFFFF;" edge="1" parent="1" source="12" target="9">
                    <mxGeometry relative="1" as="geometry"/>
                </mxCell>
                <mxCell id="12" value="print(&quot;el numero no es valido&quot;)&lt;br&gt;numero = (input(&quot;inserte un numero entre 0 y 99: &quot;))&lt;br&gt;intento+=1" style="rhombus;whiteSpace=wrap;html=1;" vertex="1" parent="1">
                    <mxGeometry x="500" y="-100" width="190" height="210" as="geometry"/>
                </mxCell>
                <mxCell id="17" value="" style="strokeWidth=2;html=1;shape=mxgraph.flowchart.annotation_2;align=left;labelPosition=right;pointerEvents=1;labelBackgroundColor=#333333;fontFamily=Helvetica;fontSize=12;fontColor=#FFFFFF;" vertex="1" parent="1">
                    <mxGeometry x="405" y="175" width="50" height="100" as="geometry"/>
                </mxCell>
                <mxCell id="21" value="" style="strokeWidth=2;html=1;shape=mxgraph.flowchart.annotation_2;align=left;labelPosition=right;pointerEvents=1;labelBackgroundColor=#333333;fontFamily=Helvetica;fontSize=12;fontColor=#FFFFFF;" vertex="1" parent="1">
                    <mxGeometry x="575" y="230" width="50" height="100" as="geometry"/>
                </mxCell>
                <mxCell id="24" value="" style="edgeStyle=none;html=1;fontFamily=Helvetica;fontSize=12;fontColor=#FFFFFF;" edge="1" parent="1" source="22" target="23">
                    <mxGeometry relative="1" as="geometry"/>
                </mxCell>
                <mxCell id="22" value="if numero&lt;span style=&quot;color: rgb(32 , 33 , 34) ; font-family: sans-serif ; font-size: 14px ; background-color: rgb(255 , 255 , 255)&quot;&gt;&amp;gt;x&lt;/span&gt;" style="whiteSpace=wrap;html=1;labelBackgroundColor=#333333;fontFamily=Helvetica;fontSize=12;fontColor=#FFFFFF;" vertex="1" parent="1">
                    <mxGeometry x="625" y="200" width="120" height="60" as="geometry"/>
                </mxCell>
                <mxCell id="23" value="print(&quot;El numero es menor que&quot;, x)&lt;br&gt;pass" style="whiteSpace=wrap;html=1;fontColor=#FFFFFF;labelBackgroundColor=#333333;" vertex="1" parent="1">
                    <mxGeometry x="825" y="200" width="120" height="60" as="geometry"/>
                </mxCell>
                <mxCell id="27" value="" style="edgeStyle=none;html=1;fontFamily=Helvetica;fontSize=12;fontColor=#FFFFFF;" edge="1" parent="1" source="25" target="26">
                    <mxGeometry relative="1" as="geometry"/>
                </mxCell>
                <mxCell id="26" value="print(&quot;El numero es mayor que&quot; x)" style="whiteSpace=wrap;html=1;fontColor=#FFFFFF;labelBackgroundColor=#333333;" vertex="1" parent="1">
                    <mxGeometry x="825" y="290" width="120" height="60" as="geometry"/>
                </mxCell>
                <mxCell id="25" value="elif x&lt;span style=&quot;color: rgb(32 , 33 , 34) ; font-family: sans-serif ; font-size: 14px ; background-color: rgb(255 , 255 , 255)&quot;&gt;&amp;gt;numero&lt;/span&gt;" style="whiteSpace=wrap;html=1;labelBackgroundColor=#333333;fontFamily=Helvetica;fontSize=12;fontColor=#FFFFFF;" vertex="1" parent="1">
                    <mxGeometry x="625" y="290" width="120" height="60" as="geometry"/>
                </mxCell>
                <mxCell id="31" value="" style="edgeStyle=none;html=1;fontFamily=Helvetica;fontSize=12;fontColor=#FFFFFF;" edge="1" parent="1" source="29" target="30">
                    <mxGeometry relative="1" as="geometry"/>
                </mxCell>
                <mxCell id="29" value="else:" style="whiteSpace=wrap;html=1;labelBackgroundColor=#333333;fontFamily=Helvetica;fontSize=12;fontColor=#FFFFFF;" vertex="1" parent="1">
                    <mxGeometry x="625" y="400" width="120" height="60" as="geometry"/>
                </mxCell>
                <mxCell id="30" value="print(&quot;Acertaste&quot;)" style="whiteSpace=wrap;html=1;fontColor=#FFFFFF;labelBackgroundColor=#333333;" vertex="1" parent="1">
                    <mxGeometry x="825" y="400" width="120" height="60" as="geometry"/>
                </mxCell>
                <mxCell id="32" value="" style="strokeWidth=2;html=1;shape=mxgraph.flowchart.annotation_1;align=left;pointerEvents=1;labelBackgroundColor=#333333;fontFamily=Helvetica;fontSize=12;fontColor=#FFFFFF;" vertex="1" parent="1">
                    <mxGeometry x="430" y="275" width="50" height="100" as="geometry"/>
                </mxCell>
                <mxCell id="20" value="else:" style="whiteSpace=wrap;html=1;labelBackgroundColor=#333333;fontFamily=Helvetica;fontSize=12;fontColor=#FFFFFF;" vertex="1" parent="1">
                    <mxGeometry x="455" y="250" width="120" height="60" as="geometry"/>
                </mxCell>
                <mxCell id="33" value="elif type(numero) != int:" style="whiteSpace=wrap;html=1;labelBackgroundColor=#333333;fontFamily=Helvetica;fontSize=12;fontColor=#FFFFFF;" vertex="1" parent="1">
                    <mxGeometry x="452.5" y="350" width="120" height="60" as="geometry"/>
                </mxCell>
            </root>
        </mxGraphModel>
    </diagram>
</mxfile>